<svg xmlns="http://www.w3.org/2000/svg" width="128" height="128" fill="none" viewBox="0 0 128 128" id="human">
  <path stroke="#1B1B1B" stroke-linecap="round" stroke-width="6" d="M109 35.5V35C109 26.1634 101.837 19 93 19H92.5M109 93V93C109 101.837 101.837 109 93 109H92.5M35 109V109C26.1634 109 19 101.837 19 93V93M19 35.5V35C19 26.1634 26.1634 19 35 19V19"></path>
  <ellipse cx="64" cy="46.5" stroke="#1B1B1B" stroke-width="6" rx="13" ry="12.5"></ellipse>
  <path stroke="#1B1B1B" stroke-width="6" d="M39 74.0976C39 67.1192 46.3033 62.5473 52.5804 65.5962L54.5461 66.551C60.5153 69.4503 67.4847 69.4503 73.4539 66.551L75.4196 65.5962C81.6967 62.5473 89 67.1192 89 74.0976V74.0976C89 84.5371 80.5371 93 70.0976 93H57.9024C47.4629 93 39 84.5371 39 74.0976V74.0976Z"></path>
</svg>
