<svg xmlns="http://www.w3.org/2000/svg" width="128" height="128" fill="none" viewBox="0 0 128 128" id="signal">
  <path stroke="#1B1B1B" stroke-linecap="round" stroke-width="6" d="M109 35.5V35C109 26.1634 101.837 19 93 19H92.5M109 93V93C109 101.837 101.837 109 93 109H92.5M35 109V109C26.1634 109 19 101.837 19 93V93M19 35.5V35C19 26.1634 26.1634 19 35 19V19"></path>
  <path stroke="#1B1B1B" stroke-linecap="round" stroke-linejoin="round" stroke-width="6" d="M23 66.5843H34.2523C34.9673 66.5843 35.6279 66.2026 35.985 65.5831L40.7113 57.3848C41.5771 55.8829 43.8132 56.1187 44.3469 57.768L48.964 72.0389C49.5779 73.9361 52.2861 73.865 52.7995 71.9382L60.0081 44.8834C60.5284 42.9304 63.2866 42.8937 63.8588 44.8321L75.0571 82.7688C75.6564 84.7989 78.5863 84.6286 78.9462 82.5427L83.1351 58.2669C83.4387 56.5074 85.7205 55.9973 86.7444 57.46L92.5344 65.7312C92.9087 66.2659 93.5203 66.5843 94.1729 66.5843H105"></path>
</svg>
