<svg xmlns="http://www.w3.org/2000/svg" width="128" height="128" fill="none" viewBox="0 0 128 128" id="star">
  <path stroke="#1B1B1B" stroke-linecap="round" stroke-width="6" d="M93.6985 93.6985C87.8247 99.5723 80.341 103.572 72.1938 105.193C64.0466 106.814 55.6018 105.982 47.9273 102.803C42.8069 100.682 38.1829 97.5798 34.3015 93.6985M93.6985 34.3015C87.8247 28.4277 80.341 24.4276 72.1938 22.807C64.0466 21.1865 55.6018 22.0182 47.9273 25.1971C42.8069 27.318 38.1829 30.4202 34.3015 34.3015"></path>
  <path stroke="#1B1B1B" stroke-width="6" d="M62.2256 48.4124C62.9725 46.976 65.0275 46.976 65.7744 48.4124L70.2086 56.9397C70.3983 57.3043 70.6957 57.6017 71.0603 57.7914L79.5876 62.2256C81.024 62.9725 81.024 65.0275 79.5876 65.7744L71.0603 70.2086C70.6957 70.3983 70.3983 70.6957 70.2086 71.0603L65.7744 79.5876C65.0275 81.024 62.9725 81.024 62.2256 79.5876L57.7914 71.0603C57.6017 70.6957 57.3043 70.3983 56.9397 70.2086L48.4124 65.7744C46.976 65.0275 46.976 62.9725 48.4124 62.2256L56.9397 57.7914C57.3043 57.6017 57.6017 57.3043 57.7914 56.9397L62.2256 48.4124Z"></path>
  <path stroke="#1B1B1B" stroke-linecap="round" stroke-width="6" d="M97 80H104"></path>
  <path stroke="#1B1B1B" stroke-linecap="round" stroke-linejoin="round" stroke-width="6" d="M31 80H23M97 47H104"></path>
  <path stroke="#1B1B1B" stroke-linecap="round" stroke-width="6" d="M101 64H112M27 64H16"></path>
  <path stroke="#1B1B1B" stroke-linecap="round" stroke-linejoin="round" stroke-width="6" d="M31 47H23"></path>
</svg>
